<?xml version="1.0" standalone="no"?>
<!DOCTYPE svg PUBLIC "-//W3C//DTD SVG 20010904//EN"
 "http://www.w3.org/TR/2001/REC-SVG-20010904/DTD/svg10.dtd">
<svg version="1.0" xmlns="http://www.w3.org/2000/svg"
 width="1094.000000pt" height="1280.000000pt" viewBox="0 0 1094.000000 1280.000000"
 preserveAspectRatio="xMidYMid meet">
<metadata>
Created by potrace 1.15, written by Peter Selinger 2001-2017
</metadata>
<g transform="translate(0.000000,1280.000000) scale(0.100000,-0.100000)"
fill="#000000" stroke="none">
<path fill="white" d="M5010 11729 c-947 -55 -1893 -248 -2974 -606 -257 -85 -260 -87 -312
-137 -58 -56 -60 -64 -143 -366 -370 -1357 -582 -2553 -656 -3695 -27 -415
-17 -1177 19 -1450 3 -22 10 -80 17 -130 67 -543 253 -1103 477 -1435 126
-186 275 -346 480 -517 64 -53 153 -127 197 -163 274 -227 685 -530 1213 -894
598 -412 1825 -1217 1909 -1252 29 -12 38 -12 85 7 68 27 842 462 1198 674
406 241 516 309 1028 629 98 62 603 398 732 488 245 170 274 191 390 277 407
302 665 554 847 826 190 285 362 778 442 1265 49 305 70 563 78 995 10 577
-31 1182 -127 1850 -33 224 -115 723 -130 790 -5 22 -26 126 -46 230 -71 377
-280 1268 -374 1595 -12 41 -32 114 -46 163 -30 109 -47 143 -82 161 -47 24
-432 153 -712 237 -461 140 -902 246 -1430 343 -241 45 -598 87 -930 111 -231
16 -902 19 -1150 4z"/>
</g>
</svg>
