<?xml version="1.0" standalone="no"?>
<!DOCTYPE svg PUBLIC "-//W3C//DTD SVG 20010904//EN"
 "http://www.w3.org/TR/2001/REC-SVG-20010904/DTD/svg10.dtd">
<svg version="1.0" xmlns="http://www.w3.org/2000/svg"
 width="1280.000000pt" height="914.000000pt" viewBox="0 0 1280.000000 914.000000"
 preserveAspectRatio="xMidYMid meet">
<metadata>
Created by potrace 1.15, written by Peter Selinger 2001-2017
</metadata>
<g transform="translate(0.000000,914.000000) scale(0.100000,-0.100000)"
fill="#000000" stroke="none">
<path d="M10927 8130 l-129 -58 -59 -131 -59 -131 -6 -133 -7 -132 -59 -98
c-32 -53 -63 -109 -69 -124 -5 -14 -30 -57 -56 -94 l-46 -69 -198 0 -198 0
-68 -82 c-101 -122 -187 -234 -315 -413 -63 -88 -147 -204 -187 -258 -87 -118
-192 -288 -257 -419 l-48 -96 59 -99 c203 -343 363 -556 604 -805 l94 -98 84
0 83 0 0 -942 c0 -932 -1 -943 -21 -968 -54 -67 -165 -241 -233 -366 l-76
-139 0 -95 c0 -71 -5 -108 -20 -147 -23 -61 -53 -225 -75 -408 -14 -122 -19
-138 -72 -252 -53 -115 -58 -123 -85 -123 -27 0 -28 -1 -28 -54 l0 -53 -55
-37 c-30 -20 -55 -41 -55 -46 0 -6 17 -43 38 -83 37 -72 37 -72 42 -222 l5
-150 28 -3 c25 -3 27 -1 28 35 2 47 16 109 18 76 2 -43 41 -187 52 -194 24
-15 404 -59 507 -59 34 0 61 21 62 47 0 7 -40 43 -90 80 -87 67 -90 70 -140
171 l-50 103 0 172 c0 165 2 178 35 305 49 186 98 313 226 588 137 296 224
470 280 560 120 194 142 235 177 326 20 54 44 100 52 103 8 2 35 7 60 10 l45
7 -6 -139 c-5 -114 -12 -160 -41 -268 l-35 -131 9 -294 c4 -162 12 -411 16
-552 l7 -257 -88 -120 -88 -120 38 -73 38 -73 5 -150 5 -150 28 -3 27 -3 0
141 c0 141 0 141 23 138 33 -5 107 -157 114 -238 5 -55 9 -63 42 -89 35 -28
41 -28 279 -47 l242 -19 0 40 -1 40 -108 51 c-102 48 -111 55 -149 111 -36 54
-44 75 -76 229 l-35 170 15 140 c20 196 50 371 134 804 28 145 30 169 30 390
0 233 0 238 29 334 16 54 32 100 34 103 11 11 190 33 270 33 l87 0 0 363 c0
307 -4 401 -25 622 -66 700 -118 1031 -187 1195 -95 222 -120 345 -101 483 l8
59 52 -64 c89 -110 87 -108 151 -108 54 0 61 3 105 43 46 41 47 44 77 170 l30
127 -70 288 c-61 250 -70 299 -70 380 0 83 -3 99 -30 151 l-29 59 30 89 30 88
-17 117 -17 118 -68 102 -68 102 29 53 c30 53 30 53 30 221 l0 167 -82 82
c-82 80 -85 81 -193 117 -61 20 -112 36 -115 35 -3 0 -63 -27 -133 -59z"/>
<path d="M3430 8089 c-19 -10 -78 -26 -130 -35 -94 -16 -96 -17 -195 -92 -147
-111 -145 -109 -134 -142 9 -24 6 -31 -20 -58 -47 -47 -42 -62 23 -62 30 0 57
-4 60 -9 3 -4 6 -73 7 -152 0 -118 -3 -155 -19 -206 l-20 -62 55 -12 55 -13
64 -128 c35 -70 66 -128 68 -128 5 0 140 27 175 36 21 4 18 -2 -22 -46 -44
-48 -108 -152 -207 -331 -24 -45 -64 -103 -87 -129 -38 -42 -43 -54 -43 -94 0
-52 -5 -54 -65 -27 -46 21 -113 74 -275 217 -256 226 -245 213 -314 369 l-62
140 -71 23 c-47 15 -86 36 -113 60 l-41 37 -51 305 c-27 168 -53 309 -58 313
-10 11 -176 -53 -260 -100 -209 -116 -474 -290 -705 -464 -212 -158 -225 -173
-300 -332 l-65 -139 218 -105 217 -106 60 -76 c220 -281 315 -415 315 -448 0
-19 5 -23 30 -23 26 0 30 -3 26 -22 -3 -13 -8 -49 -11 -81 -6 -52 -4 -62 15
-82 13 -13 24 -41 27 -67 4 -36 13 -51 57 -93 46 -44 55 -60 78 -135 15 -47
57 -179 93 -293 63 -195 68 -207 89 -201 38 12 216 104 216 112 0 4 -14 47
-30 96 -16 50 -28 91 -27 93 2 1 19 -17 37 -42 27 -36 40 -45 64 -45 34 0 509
45 619 58 l67 8 -5 -60 c-21 -247 -41 -425 -70 -646 -19 -140 -41 -324 -50
-409 -9 -85 -23 -167 -30 -182 -13 -24 -12 -33 10 -90 l25 -63 -33 -36 -34
-35 -78 -443 -79 -444 23 -66 c56 -157 148 -377 216 -517 67 -137 163 -302
474 -813 61 -101 111 -189 111 -195 -1 -7 -38 -84 -83 -172 l-82 -160 -144
-76 c-135 -71 -145 -78 -158 -114 -13 -38 -12 -40 14 -67 27 -26 34 -28 204
-42 175 -14 177 -14 255 8 138 40 133 39 146 11 11 -24 13 -25 119 -25 l109 0
20 -40 c13 -26 27 -40 40 -40 10 0 78 29 150 66 129 65 131 66 177 135 l46 69
13 158 c12 158 12 158 52 223 35 56 42 78 56 178 10 62 16 114 14 116 -13 12
-211 67 -259 72 -57 6 -60 7 -85 51 l-27 46 12 245 c43 871 120 1817 160 1956
30 105 48 153 71 185 18 25 22 59 36 288 l16 261 -92 313 -91 313 66 195 c36
107 83 260 105 340 21 80 51 181 67 225 l29 80 -18 230 -18 230 -92 190 c-87
176 -93 195 -98 265 l-5 75 -88 45 c-79 41 -87 47 -83 70 3 14 12 113 22 220
l16 195 -65 135 c-98 201 -122 224 -265 260 -91 23 -106 23 -152 -1z"/>
<path d="M6780 4008 c-92 -38 -96 -41 -138 -105 l-44 -66 -18 -185 -18 -185
50 -85 c64 -108 98 -185 98 -222 0 -30 -1 -30 -54 -30 -51 0 -56 2 -86 40
l-32 40 -102 -6 -101 -6 -146 60 c-167 69 -245 107 -326 159 -86 55 -222 115
-378 167 -77 25 -178 65 -224 89 l-85 42 -75 152 c-42 84 -79 153 -82 153 -3
0 -13 -6 -22 -13 -16 -11 -17 -18 -4 -80 13 -57 13 -67 1 -67 -8 0 -58 23
-112 50 -53 28 -115 53 -137 56 l-40 6 25 -24 c14 -13 43 -38 65 -57 44 -37
37 -37 -62 0 -35 12 -65 20 -69 17 -14 -15 10 -48 49 -68 23 -11 56 -32 72
-46 29 -25 29 -26 5 -20 -54 14 -120 19 -120 9 0 -6 39 -32 86 -58 l86 -48
-78 -33 -77 -32 49 -6 c27 -3 102 -10 167 -16 l118 -10 307 -157 c521 -265
672 -351 672 -381 -1 -9 -6 -63 -13 -119 l-13 -103 53 0 c52 0 55 -1 143 -81
l90 -80 0 -57 c0 -31 7 -228 15 -437 8 -209 15 -417 15 -463 l0 -83 -67 -30
c-37 -17 -69 -32 -71 -34 -2 -2 10 -29 28 -59 l31 -56 -86 -172 c-94 -188
-138 -263 -160 -272 -12 -4 -15 -26 -15 -93 0 -77 4 -98 32 -165 l33 -78 112
0 c96 0 122 4 183 26 67 25 73 30 97 78 78 156 198 274 413 403 l35 21 95 -75
c52 -42 156 -137 230 -212 l136 -137 117 -52 117 -52 115 0 c141 0 137 -5 145
175 l5 130 -52 59 c-32 37 -79 112 -119 191 -95 184 -140 262 -191 325 l-45
55 3 355 2 355 -27 110 c-15 61 -25 117 -23 126 2 9 33 55 68 102 l64 85 88 7
c48 4 90 12 93 17 3 4 8 34 10 66 9 99 8 97 99 147 109 60 282 131 625 258
l275 102 209 5 208 5 -62 45 -62 45 86 3 87 3 -3 27 c-3 26 -6 27 -73 32 l-70
5 70 40 c38 22 71 48 73 57 3 15 -4 15 -80 -2 -45 -11 -84 -18 -85 -16 -2 2
24 24 57 51 33 26 60 52 60 58 0 16 -72 -3 -143 -39 -37 -19 -73 -34 -78 -34
-15 0 -1 56 27 113 24 46 24 47 4 47 -27 0 -79 -49 -170 -159 -71 -85 -79 -91
-145 -115 -108 -38 -201 -64 -398 -111 -152 -36 -206 -54 -327 -110 -138 -64
-154 -69 -344 -105 l-199 -37 -15 38 -15 39 -60 0 c-57 0 -62 -2 -109 -46 -47
-44 -50 -45 -68 -29 -18 16 -17 19 27 78 25 34 60 92 79 129 l34 68 0 205 0
206 -62 92 c-35 50 -65 95 -68 99 -6 8 -154 39 -180 37 -8 0 -58 -19 -110 -41z"/>
</g>
</svg>
